# xmcd CD database file
#
# Track frame offsets:
#	150
#	24535
#	44545
#	64580
#	90653
#	114040
#	134105
#	152110
#	176520
#
# Disc length: 2631 seconds
#
# Revision: 0
# Processed by: cddbd v1.5.1PL2 Copyright (c) Steve Scherf et al.
# Submitted via: CDex 1.51
#
DISCID=720a4509
DTITLE=今津真美 - Silhonette'90
DYEAR=1990
DGENRE=JPop
TTITLE0=Mami・夢・Memories[Inst]
TTITLE1=Urban Bedouin
TTITLE2=ポアントでルフラン
TTITLE3=Water Dream[Inst]
TTITLE4=My Eyes Only
TTITLE5=Purple Sky
TTITLE6=Etude In A Goldfish Basin[Inst]
TTITLE7=Sailin' Masquerade
TTITLE8=Passage Of Silence[Inst]
EXTD=YEAR: 1990
EXTT0=
EXTT1=
EXTT2=
EXTT3=
EXTT4=
EXTT5=
EXTT6=
EXTT7=
EXTT8=
PLAYORDER=
